# xmcd
#
# Track frame offsets:
# 150
# 18939
# 39680
# 60786
# 84314
# 103194
# 122252
# 145945
# 166144
# 171085
# 194212
# 204017
# 224137
# 241438
# 261198
# 284191
# 305485
#
# Disc length: 4381 seconds
#
# Revision: 0
# Processed by: cddbd v1.5.1PL0 Copyright (c) Steve Scherf et al.
# Submitted via: Audion 3.0.2 (http://www.panic.com/audion/)
#
DISCID=f7111b11
DTITLE=Litfiba - Misto Sara
DYEAR=1900
DGENRE=
TTITLE0=Lo spettacolo
TTITLE1=Animale di zona
TTITLE2=Spirito
TTITLE3=La musica fa
TTITLE4=Lacio drom
TTITLE5=No frontiere
TTITLE6=Diavolo illuso
TTITLE7=Telephone blues
TTITLE8=Ora d'aria
TTITLE9=Suona fratello
TTITLE10=El diablo
TTITLE11=Proibito
TTITLE12=Il volo
TTITLE13=Woda woda
TTITLE14=Ragazzo
TTITLE15=Gioconda
TTITLE16=Fine
EXTD=
EXTT0=
EXTT1=
EXTT2=
EXTT3=
EXTT4=
EXTT5=
EXTT6=
EXTT7=
EXTT8=
EXTT9=
EXTT10=
EXTT11=
EXTT12=
EXTT13=
EXTT14=
EXTT15=
EXTT16=
PLAYORDER=
